<?xml version="1.0" encoding="UTF-8" standalone="no"?>
<!-- Created with Inkscape (http://www.inkscape.org/) -->

<svg
   width="800"
   height="600"
   viewBox="0 0 211.66668 158.75"
   version="1.1"
   id="svg8557"
   inkscape:version="1.1.2 (0a00cf5339, 2022-02-04)"
   sodipodi:docname="greek.svg"
   xmlns:inkscape="http://www.inkscape.org/namespaces/inkscape"
   xmlns:sodipodi="http://sodipodi.sourceforge.net/DTD/sodipodi-0.dtd"
   xmlns="http://www.w3.org/2000/svg"
   xmlns:svg="http://www.w3.org/2000/svg"
   xmlns:rdf="http://www.w3.org/1999/02/22-rdf-syntax-ns#"
   xmlns:cc="http://creativecommons.org/ns#"
   xmlns:dc="http://purl.org/dc/elements/1.1/">
  <defs
     id="defs8551">
    <inkscape:path-effect
       effect="skeletal"
       id="path-effect9127"
       is_visible="true"
       pattern="m 34.905565,35.953867 v -0.488152 h 16.958261 16.958287 v 0.488152 0.48816 H 51.863826 34.905565 Z m 0,-6.579548 v -5.199976 h 5.178746 5.178746 v 4.244875 4.244875 H 41.952053 38.641049 V 30.30819 27.952287 h 1.422032 1.422032 v 0.933871 0.933871 h 0.46694 0.466931 v -1.400811 -1.400811 h -2.334673 -2.334682 v 3.289783 3.289774 h 4.223645 4.223654 v -4.711806 -4.711815 h 5.178746 5.178737 v 4.244875 4.244875 H 53.264637 49.974863 V 30.30819 27.952287 h 1.42204 1.422023 v 0.933871 0.933871 h 0.445711 0.445719 v -1.400811 -1.400811 h -2.334682 -2.334682 v 3.289783 3.289774 h 4.223645 4.223645 v -4.711806 -4.711815 h 5.199975 5.199985 v 4.244875 4.244875 H 64.577229 61.266225 V 30.30819 27.952287 h 1.422032 1.422032 v 0.933871 0.933871 h 0.467516 0.467526 l -0.01117,-1.390196 -0.01117,-1.390196 -2.345297,-0.011 -2.345297,-0.011 v 3.290138 3.290137 h 4.246285 4.246275 l -0.01197,0.477546 -0.01197,0.477546 h -4.711825 -4.711814 v -4.244866 -4.244874 l 3.300388,-0.01091 3.300398,-0.01091 v 2.377389 2.37739 h -1.422041 -1.422032 v -0.933871 -0.933871 h -0.445719 -0.44571 v 1.379581 1.37959 h 2.334682 2.334691 V 28.41912 25.150567 H 62.688568 58.4651 l -0.01082,4.7012 -0.01082,4.7012 h -5.178763 -5.178746 l -0.01082,-4.25549 -0.01082,-4.255481 h 3.311217 3.311199 v 2.377124 2.377133 h -1.422028 -1.422041 v -0.933871 -0.933871 h -0.466931 -0.46694 v 1.379581 1.379581 h 2.355912 2.355903 V 28.41912 25.150567 h -4.223468 -4.223459 l -0.01082,4.7012 -0.01082,4.7012 -5.18936,0.01073 -5.189361,0.01082 v -4.266521 -4.266522 l 3.300389,0.01091 3.300389,0.01091 0.011,2.366518 0.011,2.366518 h -1.422348 -1.422387 v -0.93388 -0.933871 h -0.46694 -0.466931 v 1.379581 1.37959 h 2.334673 2.334682 v -3.26857 -3.268554 h -4.223636 -4.223654 v 4.711815 4.711806 H 35.37262 34.90568 Z m 0,-6.600778 v -0.46694 h 16.958261 16.958287 v 0.46694 0.466931 H 51.863826 34.905565 Z"
       copytype="repeated_stretched"
       prop_scale="1.1138325"
       scale_y_rel="false"
       spacing="0"
       normal_offset="0"
       tang_offset="0"
       prop_units="false"
       vertical_pattern="false"
       fuse_tolerance="0"
       lpeversion="0"
       hide_knot="false" />
  </defs>
  <sodipodi:namedview
     id="base"
     pagecolor="#ffffff"
     bordercolor="#666666"
     borderopacity="1.0"
     inkscape:pageopacity="0.0"
     inkscape:pageshadow="2"
     inkscape:zoom="0.14766367"
     inkscape:cx="-457.11989"
     inkscape:cy="606.10711"
     inkscape:document-units="mm"
     inkscape:current-layer="layer1"
     showgrid="false"
     inkscape:window-width="1316"
     inkscape:window-height="704"
     inkscape:window-x="0"
     inkscape:window-y="0"
     inkscape:window-maximized="1"
     inkscape:pagecheckerboard="0"
     fit-margin-top="0"
     fit-margin-left="0"
     fit-margin-right="0"
     fit-margin-bottom="0"
     units="px"
     width="800px" />
  <metadata
     id="metadata8554">
    <rdf:RDF>
      <cc:Work
         rdf:about="">
        <dc:format>image/svg+xml</dc:format>
        <dc:type
           rdf:resource="http://purl.org/dc/dcmitype/StillImage" />
      </cc:Work>
    </rdf:RDF>
  </metadata>
  <g
     inkscape:label="Layer 1"
     inkscape:groupmode="layer"
     id="layer1"
     transform="translate(-0.02709043,-2.4176506)">
    <ellipse
       style="fill:#cccccc;fill-opacity:1;fill-rule:evenodd;stroke:#999999;stroke-width:0.0802033;stroke-linejoin:round;stroke-miterlimit:4;stroke-dasharray:none;stroke-dashoffset:0;stroke-opacity:1"
       id="path10892"
       cx="105.86042"
       cy="81.792648"
       rx="52.175404"
       ry="51.579247" />
    <path
       style="fill:#ffffff;fill-opacity:1;fill-rule:evenodd;stroke:#999999;stroke-width:0.153023;stroke-linejoin:round;stroke-miterlimit:4;stroke-dasharray:none;stroke-dashoffset:0;stroke-opacity:1"
       d="m 141.31099,81.792712 h 0.54372 c 0.11648,5.223443 -1.27913,10.433408 -3.75868,15.201754 -2.47956,4.768354 -6.04306,9.095084 -10.26238,12.552064 l -0.3422,-0.41983 -0.34221,-0.41983 c 4.10364,-3.36554 7.57572,-7.57658 9.98811,-12.204988 2.41238,-4.628403 3.76506,-9.674174 3.62991,-14.709178 z m 7.32851,0 h 5.79191 c -0.0304,2.260714 -0.22791,4.494007 -0.58043,6.687694 -0.35251,2.193686 -0.86001,4.347764 -1.51029,6.450043 L 147.87935,93.54718 143.418,92.163911 c 0.33376,-1.074434 0.61719,-2.162003 0.84712,-3.259521 0.22992,-1.097517 0.40633,-2.204983 0.52604,-3.319211 l 2.58579,0.291982 2.58579,0.291983 c -0.0633,0.550485 -0.13787,1.0989 -0.22347,1.644992 -0.0856,0.546092 -0.18224,1.089861 -0.28965,1.631056 l -1.00891,-0.199333 -1.00892,-0.199332 c -0.0333,0.168772 -0.0677,0.337301 -0.10325,0.505579 -0.0355,0.168275 -0.0722,0.336298 -0.10996,0.504061 l 1.50417,0.338892 1.50417,0.338891 c 0.2047,-0.90478 0.38035,-1.817388 0.52584,-2.736706 0.1455,-0.919322 0.26083,-1.845354 0.34489,-2.776981 l -3.62572,-0.312588 -3.62571,-0.312588 c -0.10708,1.382746 -0.30638,2.757323 -0.59129,4.117118 -0.28491,1.359798 -0.65543,2.704812 -1.10493,4.028429 l 4.91252,1.660992 4.91252,1.660994 c -0.70138,2.0832 -1.54334,4.1124 -2.5137,6.07541 -0.97036,1.963 -2.06911,3.85982 -3.28406,5.67824 l -3.90168,-2.62237 -3.90168,-2.62237 c 0.63585,-0.94171 1.23274,-1.90712 1.78755,-2.893093 0.55481,-0.985976 1.06754,-1.992521 1.53507,-3.016509 l 2.36535,1.073612 2.36535,1.073612 c -0.22709,0.501451 -0.46345,0.998819 -0.70883,1.491848 -0.24537,0.49303 -0.49977,0.98173 -0.76292,1.46583 l -0.90593,-0.49357 -0.90594,-0.49356 c -0.079,0.14483 -0.15876,0.28925 -0.23938,0.43324 -0.0806,0.144 -0.16206,0.28756 -0.24431,0.4307 l 1.3428,0.77111 1.34279,0.77111 c 0.45947,-0.80294 0.89531,-1.6191 1.30638,-2.44738 0.41108,-0.828281 0.7974,-1.668674 1.15785,-2.520064 l -3.33662,-1.417538 -3.33661,-1.417534 c -0.55289,1.291798 -1.18031,2.557745 -1.87566,3.791226 -0.69535,1.23348 -1.45862,2.43449 -2.2832,3.59643 l 4.26554,3.01064 4.26555,3.01066 c -1.26161,1.7971 -2.63817,3.51295 -4.11731,5.13522 -1.47915,1.62227 -3.0609,3.15095 -4.73289,4.57369 l -3.05785,-3.58407 -3.05785,-3.58408 c 0.87276,-0.74613 1.71697,-1.52717 2.52943,-2.33994 0.81247,-0.81276 1.5932,-1.65724 2.339,-2.53027 l 1.98978,1.69636 1.98978,1.69635 c -0.35838,0.42071 -0.72402,0.83532 -1.09668,1.2436 -0.37266,0.40827 -0.75233,0.81021 -1.13876,1.20556 l -0.74152,-0.72488 -0.74151,-0.72488 c -0.12166,0.12444 -0.24401,0.24821 -0.36704,0.37129 -0.12304,0.12308 -0.24677,0.24548 -0.37117,0.36718 0.36279,0.36492 0.72568,0.72974 1.08867,1.09446 0.36298,0.36473 0.72607,0.72936 1.08925,1.09389 0.66787,-0.64822 1.31751,-1.3154 1.94779,-2.00042 0.63028,-0.68503 1.2412,-1.3879 1.83159,-2.10751 l -2.83045,-2.30536 -2.83045,-2.30537 c -0.909,1.11224 -1.87546,2.18047 -2.89267,3.19797 -1.0172,1.01751 -2.08515,1.98429 -3.19712,2.89363 -0.10844,-0.13948 -0.21693,-0.27892 -0.32545,-0.41833 -0.10853,-0.13941 -0.21709,-0.27878 -0.3257,-0.41813 1.20191,-0.98488 2.35139,-2.03862 3.43928,-3.15202 1.08788,-1.11341 2.11416,-2.28648 3.06965,-3.51004 l 3.71792,2.88833 3.71793,2.88833 c -0.81613,1.05998 -1.67518,2.08746 -2.57402,3.07925 -0.89883,0.9918 -1.83745,1.94791 -2.81273,2.86514 l -1.80332,-1.92762 -1.80332,-1.92762 c 0.37749,-0.35327 0.74905,-0.71297 1.11442,-1.07884 0.36537,-0.36587 0.72455,-0.73792 1.0773,-1.11589 l 0.75817,0.70732 0.75817,0.70732 c 0.11556,-0.12389 0.23046,-0.24839 0.34468,-0.37349 0.11423,-0.12511 0.22778,-0.25081 0.34065,-0.37712 l -1.14188,-1.02061 -1.14189,-1.02062 c -0.55356,0.61871 -1.12447,1.2223 -1.71162,1.80966 -0.58715,0.58737 -1.19054,1.1585 -1.80906,1.71228 l 2.41906,2.7045 2.41907,2.70452 c 1.30269,-1.16338 2.54581,-2.39362 3.72276,-3.68409 1.17695,-1.29047 2.28772,-2.64117 3.3257,-4.0455 -1.3925,-1.03886 -2.78528,-2.07734 -4.17831,-3.11545 -1.39304,-1.03811 -2.78634,-2.07585 -4.17991,-3.11321 1.01895,-1.36642 1.95019,-2.79163 2.78152,-4.263438 0.83133,-1.471803 1.56275,-2.990203 2.18208,-4.543007 -6e-5,-2.4e-5 4.363,1.712677 4.36295,1.712654 1.45446,0.570464 2.90909,1.140508 4.36387,1.710133 -0.49124,1.249725 -1.03637,2.477348 -1.63224,3.679678 -0.59585,1.20232 -1.24243,2.37935 -1.93654,3.5279 l -2.24762,-1.36459 -2.24762,-1.36459 c 0.26736,-0.43941 0.52679,-0.88324 0.77803,-1.33125 0.25125,-0.448 0.4943,-0.900179 0.72891,-1.356273 l 0.91725,0.470669 0.91725,0.470674 c 0.0806,-0.15714 0.1602,-0.31473 0.23887,-0.47277 0.0787,-0.158043 0.15639,-0.316535 0.23315,-0.475466 l -1.37038,-0.662312 -1.37039,-0.662311 c -0.36196,0.745861 -0.74712,1.481853 -1.15433,2.206829 -0.40721,0.72497 -0.83646,1.43893 -1.28662,2.14072 l 3.04813,1.94851 3.04812,1.94851 c 0.93694,-1.47356 1.79663,-2.99628 2.57247,-4.56156 0.77584,-1.56528 1.46782,-3.173109 2.06932,-4.81688 -1.61775,-0.599549 -3.23568,-1.198627 -4.85376,-1.797234 -1.61809,-0.598607 -3.23635,-1.196743 -4.85476,-1.794407 0.57599,-1.569381 1.03704,-3.170582 1.37095,-4.791263 0.33387,-1.620687 0.54061,-3.260849 0.60802,-4.90814 l 4.72138,0.268249 4.72137,0.268249 c -0.0903,1.358746 -0.24485,2.705931 -0.46054,4.038428 -0.2157,1.332498 -0.4925,2.650308 -0.82723,3.950307 -0.84248,-0.209111 -1.6849,-0.418479 -2.52724,-0.628106 -4e-5,-1.1e-5 -2.52679,-0.629645 -2.52684,-0.629655 0.12546,-0.493827 0.24096,-0.990072 0.34628,-1.488484 0.10531,-0.498425 0.20042,-0.999016 0.28509,-1.501521 l 1.01464,0.172321 1.01462,0.17232 c 0.0296,-0.174038 0.0581,-0.348317 0.0854,-0.522829 0.0273,-0.174508 0.0534,-0.349249 0.0784,-0.524213 l -1.5067,-0.214029 -1.5067,-0.21403 c -0.11222,0.806752 -0.25263,1.609214 -0.4201,2.406271 -0.16747,0.79706 -0.36201,1.588714 -0.5825,2.373844 l 3.46237,0.972489 3.46235,0.972485 c 0.47476,-1.689881 0.85452,-3.411185 1.13267,-5.157296 0.27815,-1.746119 0.45469,-3.517046 0.52299,-5.306166 l -5.23222,-0.149208 -5.23221,-0.149207 c 0.002,-0.148418 0.003,-0.29688 0.002,-0.445377 -4.2e-4,-0.148501 -0.002,-0.297038 -0.005,-0.445602 1.93061,-2.8e-5 3.86123,-6.2e-5 5.79184,-1.04e-4 z m 7.35217,0 h 0.52009 c -0.13516,7.763404 -2.10928,15.186442 -5.49422,21.840988 -3.38494,6.65455 -8.18071,12.54061 -13.95917,17.23004 l -0.32733,-0.40158 -0.32732,-0.40158 c 5.66781,-4.60196 10.37613,-10.37736 13.69682,-16.89805 3.32068,-6.520688 5.25374,-13.786669 5.37104,-21.369811 z m -28.50232,27.335708 0.34218,0.41984 c -4.21954,3.45668 -9.09481,6.04353 -14.19768,7.33242 -2.55206,0.6446 -5.16105,0.96455 -7.77341,0.9063 -2.6111,0.0582 -5.21882,-0.26138 -7.769704,-0.90536 l 0.132209,-0.52063 0.132211,-0.52064 c 2.468804,0.62252 4.988384,0.92674 7.505284,0.85918 2.51811,0.0676 5.03892,-0.23696 7.50887,-0.86009 4.93868,-1.24596 9.67402,-3.76563 13.77787,-7.13088 z m 4.61197,5.65891 3.64495,4.47237 c -1.69715,1.37852 -3.48161,2.64977 -5.34119,3.80156 -1.85958,1.15178 -3.79427,2.18409 -5.79189,3.08474 l -1.93585,-4.2613 -1.93585,-4.2613 c 1.03046,-0.47089 2.04324,-0.98756 3.03515,-1.54683 0.99191,-0.55926 1.96295,-1.16112 2.90994,-1.80238 l 1.45839,2.16353 1.45839,2.16354 c -0.45786,0.30809 -0.92098,0.60809 -1.3891,0.89974 -0.46813,0.29166 -0.94127,0.57497 -1.41916,0.84968 l -0.51532,-0.89451 -0.51533,-0.89452 c -0.14984,0.0864 -0.30015,0.17187 -0.45093,0.25645 -0.15078,0.0846 -0.30203,0.16828 -0.45373,0.25105 l 0.74079,1.35868 0.74079,1.35868 c 0.81274,-0.44152 1.61266,-0.90709 2.39865,-1.39561 0.786,-0.48852 1.55807,-0.99998 2.3151,-1.53326 l -2.10297,-2.97758 -2.10296,-2.97756 c -1.1617,0.82495 -2.3625,1.58861 -3.59578,2.28436 -1.23329,0.69576 -2.49907,1.32362 -3.79071,1.87695 l 2.03187,4.77825 2.03188,4.77826 c -2.01992,0.85278 -4.10056,1.57169 -6.22973,2.14454 -2.12917,0.57286 -4.30687,0.99967 -6.52091,1.26822 l -0.53362,-4.65784 -0.53363,-4.65784 c 1.10686,-0.12082 2.20699,-0.29756 3.29727,-0.52709 1.09027,-0.22954 2.1707,-0.51187 3.23814,-0.84387 l 0.76857,2.47578 0.76858,2.47578 c -0.52568,0.16307 -1.0546,0.31604 -1.58652,0.45865 -0.53191,0.14261 -1.06682,0.27486 -1.60447,0.39651 l -0.22628,-1.0027 -0.22629,-1.00269 c -0.16012,0.0361 -0.32049,0.0712 -0.48108,0.10528 -0.1606,0.0341 -0.32142,0.0671 -0.48247,0.0992 l 0.30137,1.51285 0.30138,1.51285 c 0.91051,-0.18268 1.81362,-0.39481 2.70821,-0.63529 0.89458,-0.24048 1.78065,-0.50931 2.65707,-0.80536 l -1.16089,-3.42953 -1.16088,-3.42953 c -1.32348,0.44998 -2.66838,0.82099 -4.02809,1.10641 -1.35971,0.28542 -2.73421,0.48526 -4.11691,0.59289 l 0.44965,5.19267 0.44966,5.19267 c -1.22834,0.11644 -2.46707,0.18406 -3.71414,0.20082 -1.0229,-0.0137 -2.0402,-0.0617 -3.05075,-0.14277 -2.24256,-0.17988 -4.45192,-0.52275 -6.615736,-1.01626 l 1.030761,-4.55717 1.030762,-4.55717 c 1.094464,0.2459 2.199353,0.43878 3.311483,0.57543 1.11213,0.13665 2.2315,0.21707 3.35492,0.2381 l -0.0736,2.61622 -0.0736,2.61622 c -0.5577,-0.0177 -1.11382,-0.0471 -1.66811,-0.088 -0.5543,-0.041 -1.10677,-0.0935 -1.65717,-0.15722 l 0.11663,-1.02485 0.11664,-1.02485 c -0.17158,-0.0194 -0.34298,-0.04 -0.51417,-0.0618 -0.1712,-0.0218 -0.3422,-0.0447 -0.51299,-0.0688 -0.0676,0.50671 -0.13512,1.01344 -0.20243,1.5202 -0.0673,0.50676 -0.13446,1.01356 -0.20144,1.52038 0.92525,0.13701 1.85729,0.24341 2.79501,0.31805 0.93267,0.0742 1.87096,0.11705 2.81376,0.12731 0.005,-10e-6 0.0102,-3e-5 0.0153,-4e-5 l -0.001,-3.66452 -0.001,-3.66452 c -0.004,-6e-5 -0.008,-1.2e-4 -0.0125,-1.8e-4 -1.39405,0.0202 -2.78436,-0.0568 -4.16429,-0.22425 -1.38403,-0.16794 -2.757607,-0.4269 -4.114008,-0.77014 0.04695,-0.1688 0.09384,-0.33762 0.140679,-0.50645 0.04684,-0.16884 0.09361,-0.33768 0.140338,-0.50655 1.46068,0.36818 2.940631,0.63435 4.430671,0.78933 1.18404,0.12316 2.37444,0.17611 3.56661,0.15425 0.3081,0.006 0.61609,0.006 0.92388,0.002 l 0.13923,4.71314 0.13922,4.71315 c -0.39988,0.0161 -0.80068,0.0266 -1.20233,0.0314 -0.96826,-0.006 -1.93204,-0.0448 -2.89023,-0.11562 -1.35566,-0.10025 -2.70012,-0.26446 -4.030189,-0.48949 l 0.437738,-2.58316 0.437737,-2.58316 c 0.502414,0.0845 1.006744,0.15847 1.512734,0.22177 0.50598,0.0633 1.01363,0.11592 1.52267,0.15758 l -0.087,1.02948 -0.0871,1.02948 c 0.16863,0.0144 0.33743,0.0277 0.50639,0.0399 0.16896,0.0122 0.33808,0.0232 0.50736,0.0332 l 0.0881,-1.52648 0.0881,-1.52649 c -0.81548,-0.0427 -1.62801,-0.11483 -2.43648,-0.21543 -0.80848,-0.10059 -1.612895,-0.2296 -2.412134,-0.38591 l -0.696396,3.53146 -0.6964,3.53148 c 1.728752,0.34521 3.48452,0.59103 5.26068,0.73083 0.98557,0.0776 1.97742,0.1225 2.97442,0.13367 0.79977,-0.009 1.59622,-0.0396 2.38877,-0.0915 -0.0946,-1.73434 -0.18975,-3.46862 -0.28548,-5.20282 -0.0957,-1.7342 -0.192,-3.46833 -0.28885,-5.20238 1.64484,-0.0732 3.28182,-0.2851 4.89876,-0.62344 1.61694,-0.33834 3.21383,-0.80313 4.77849,-1.38219 0.54181,1.46469 1.08404,2.92923 1.6267,4.39362 0.54266,1.46439 1.08575,2.92863 1.62926,4.39272 -1.26122,0.46242 -2.54371,0.87008 -3.84426,1.21981 -1.30055,0.34972 -2.61917,0.64151 -3.95267,0.87217 l -0.43956,-2.5825 -0.43956,-2.5825 c 0.50234,-0.0848 1.00278,-0.1801 1.50104,-0.28556 0.49827,-0.10546 0.99437,-0.22112 1.48805,-0.34671 l 0.25363,0.99582 0.25363,0.99582 c 0.17074,-0.0435 0.34119,-0.0881 0.51134,-0.13382 0.17015,-0.0457 0.33999,-0.0925 0.50952,-0.14041 l -0.41268,-1.46075 -0.41268,-1.46075 c -0.79196,0.22372 -1.59059,0.42105 -2.39475,0.59084 -0.80414,0.16978 -1.61381,0.31202 -2.42786,0.42557 l 0.50838,3.56947 0.50838,3.56948 c 1.75106,-0.25722 3.478,-0.61673 5.17419,-1.07191 1.6962,-0.45517 3.36165,-1.00602 4.98974,-1.64592 -0.63016,-1.60682 -1.26079,-3.21347 -1.89189,-4.81994 -0.63109,-1.60647 -1.26265,-3.21277 -1.89467,-4.8189 1.55437,-0.62481 3.07366,-1.36196 4.54567,-2.19909 1.47199,-0.83717 2.89671,-1.77433 4.26196,-2.79914 l 2.81974,3.79769 2.81974,3.7977 c -1.07807,0.79292 -2.18779,1.54206 -3.32598,2.24429 -1.13819,0.70223 -2.30485,1.35754 -3.49679,1.96282 -0.40222,-0.77244 -0.80421,-1.54499 -1.20599,-2.31765 -0.40178,-0.77266 -0.80333,-1.54542 -1.20467,-2.31829 0.45612,-0.23481 0.90833,-0.47805 1.35636,-0.72949 0.44804,-0.25144 0.89191,-0.51108 1.33135,-0.77865 l 0.53638,0.88284 0.53637,0.88284 c 0.1512,-0.0918 0.30189,-0.1845 0.45206,-0.27808 0.15017,-0.0936 0.29982,-0.18803 0.44894,-0.28336 l -0.82283,-1.2863 -0.82283,-1.28631 c -0.69534,0.44632 -1.40263,0.87212 -2.12075,1.27628 -0.71813,0.40417 -1.44709,0.78669 -2.18577,1.14647 l 1.57382,3.24467 1.57381,3.24466 c 1.574,-0.75858 3.10613,-1.60171 4.58976,-2.52277 1.48364,-0.92106 2.91878,-1.92005 4.29882,-2.99035 l -3.20946,-4.12436 -3.20944,-4.12435 c 0.12111,-0.0947 0.24172,-0.19017 0.36183,-0.28628 0.12011,-0.0961 0.23972,-0.19292 0.35881,-0.29039 1.21499,1.49075 2.42999,2.98151 3.645,4.47226 z m 4.62684,5.67716 0.32731,0.40161 c -5.77878,4.68901 -12.54017,8.18133 -19.85604,10.04881 -3.65883,0.93396 -7.45634,1.46152 -11.33899,1.52912 -3.88076,-0.0676 -7.676476,-0.59464 -11.333665,-1.52776 l 0.126464,-0.498 0.126462,-0.498 c 3.578677,0.9126 7.290079,1.42495 11.080739,1.48358 3.7925,-0.0587 7.50567,-0.57149 11.08595,-1.48492 7.15882,-1.82642 13.78635,-5.25447 19.45448,-9.85603 z m -38.507741,-4.10414 -0.13225,0.52062 c -5.102911,-1.28868 -9.97825,-3.87537 -14.197884,-7.33191 -4.219639,-3.45655 -7.783571,-7.78297 -10.263656,-12.551103 l 0.479313,-0.246341 0.479321,-0.246346 c 2.4129,4.62821 5.885395,8.83894 9.989346,12.20406 4.103945,3.36512 8.839344,5.88463 13.778063,7.1304 z m -1.782535,7.01717 -1.40878,5.54584 c -2.138237,-0.54514 -4.229094,-1.23748 -6.260378,-2.06484 -2.031284,-0.82736 -4.002996,-1.78974 -5.902941,-2.87493 l 2.340068,-4.06726 2.340067,-4.06725 c 0.986252,0.57064 1.9938,1.09911 3.019458,1.58224 1.025657,0.48312 2.069424,0.92089 3.128114,1.31013 l -0.891566,2.43563 -0.891567,2.43564 c -0.516817,-0.18887 -1.030059,-0.38751 -1.539472,-0.59567 -0.509413,-0.20817 -1.014998,-0.42586 -1.516502,-0.65282 l 0.425333,-0.93772 0.425333,-0.93772 c -0.157017,-0.0713 -0.313629,-0.14351 -0.469828,-0.2167 -0.156195,-0.0732 -0.311977,-0.14734 -0.467336,-0.22244 l -0.672144,1.39164 -0.672144,1.39163 c 0.833177,0.40092 1.67824,0.77685 2.534072,1.12669 0.855835,0.34983 1.722438,0.67357 2.598693,0.97008 l 1.162736,-3.42893 1.162733,-3.42892 c -1.323283,-0.45072 -2.625118,-0.98039 -3.89889,-1.58238 -1.273775,-0.60199 -2.519486,-1.27631 -3.73052,-2.01634 l -2.703699,4.45574 -2.703705,4.45575 c -1.873666,-1.12909 -3.673368,-2.3788 -5.386912,-3.73694 -1.713541,-1.35814 -3.340925,-2.8247 -4.869959,-4.3875 l 3.36853,-3.29695 3.368529,-3.29696 c 0.798789,0.81591 1.62933,1.60091 2.488496,2.35189 0.859167,0.75098 1.74696,1.46794 2.660253,2.14775 l -1.555851,2.09785 -1.555851,2.09785 c -0.443786,-0.32867 -0.881985,-0.6651 -1.314343,-1.00905 -0.432352,-0.34394 -0.858865,-0.69539 -1.279286,-1.0541 l 0.673053,-0.78822 0.673052,-0.78822 c -0.126095,-0.1077 -0.251623,-0.21608 -0.376577,-0.32513 -0.124956,-0.10906 -0.249338,-0.21879 -0.373138,-0.32918 l -1.034851,1.16075 -1.034851,1.16074 c 0.692083,0.61645 1.401454,1.21332 2.126998,1.78949 0.725543,0.57617 1.467258,1.13164 2.224027,1.66529 l 2.104438,-2.97658 2.104432,-2.97658 c -1.16133,-0.82552 -2.283529,-1.71231 -3.359981,-2.65373 -1.076453,-0.94143 -2.107159,-1.9375 -3.085505,-2.9816 l -3.819541,3.57496 -3.819549,3.57497 c -1.499291,-1.60366 -2.897205,-3.30213 -4.181401,-5.08306 -1.284199,-1.78094 -2.454678,-3.64434 -3.499094,-5.57787 l 4.118798,-2.24168 4.118797,-2.241692 c 0.546415,0.998102 1.135901,1.975812 1.765271,2.929952 0.629368,0.95413 1.298621,1.88469 2.004571,2.78848 l -2.06169,1.60538 -2.061689,1.60537 c -0.339131,-0.43605 -0.67067,-0.87786 -0.994365,-1.32518 -0.323694,-0.44731 -0.639544,-0.90014 -0.947297,-1.35822 l 0.858022,-0.57746 0.858022,-0.57747 c -0.09692,-0.14393 -0.193009,-0.28839 -0.288245,-0.43338 -0.09524,-0.14499 -0.189626,-0.29051 -0.283157,-0.43654 -0.429755,0.28 -0.859436,0.56013 -1.289044,0.84037 -0.429607,0.28024 -0.859141,0.5606 -1.288601,0.84109 0.496923,0.78532 1.016867,1.55655 1.558715,2.31255 0.541847,0.756 1.105598,1.49677 1.690136,2.22116 l 2.829076,-2.30711 2.829075,-2.30712 c -0.909681,-1.11171 -1.761936,-2.26746 -2.550044,-3.46053 -0.788105,-1.19307 -1.512064,-2.423466 -2.165155,-3.684458 0.158146,-0.07676 0.31627,-0.153576 0.474371,-0.230436 0.158101,-0.07686 0.316179,-0.15377 0.474235,-0.230728 0.707302,1.360843 1.499986,2.685792 2.368868,3.965672 0.86888,1.27987 1.813958,2.51466 2.82605,3.6952 l -3.581822,3.06054 -3.581829,3.06054 c -0.871404,-1.01538 -1.702147,-2.06562 -2.489041,-3.14758 -0.786896,-1.08197 -1.529944,-2.19566 -2.225956,-3.33796 l 2.247052,-1.36617 2.247053,-1.36618 c 0.267649,0.43926 0.543231,0.87409 0.826493,1.30425 0.283259,0.43015 0.574198,0.85562 0.872564,1.27616 l -0.844467,0.59812 -0.844467,0.59812 c 0.09772,0.13803 0.196193,0.27555 0.295424,0.41254 0.09923,0.13698 0.199212,0.27345 0.299941,0.40938 l 1.228627,-0.91086 1.228635,-0.91087 c -0.49417,-0.6649 -0.969166,-1.3431 -1.423871,-2.03349 -0.454708,-0.69038 -0.889125,-1.39295 -1.302134,-2.10658 l -3.130258,1.80464 -3.130278,1.80465 c 0.868281,1.5152 1.816691,2.98411 2.838616,4.40013 1.021925,1.41602 2.117365,2.77915 3.279706,4.08276 1.300531,-1.15542 2.600765,-2.31118 3.900702,-3.46728 1.299937,-1.1561 2.599577,-2.31254 3.89892,-3.46932 1.141195,1.27349 2.361146,2.47924 3.64766,3.60505 1.28651,1.12581 2.639583,2.17168 4.047025,3.12542 -0.873741,1.30557 -1.74713,2.61136 -2.620166,3.91738 -0.873035,1.30601 -1.745717,2.61225 -2.618048,3.91871 -1.115605,-0.74644 -2.200944,-1.53863 -3.25283,-2.37337 -1.051879,-0.83474 -2.070306,-1.71203 -3.052092,-2.6287 l 1.801949,-1.92848 1.801955,-1.92849 c 0.377695,0.35304 0.761317,0.69965 1.150614,1.03958 0.389301,0.33993 0.784276,0.67317 1.184675,0.99948 l -0.654161,0.80355 -0.654162,0.80355 c 0.137569,0.11196 0.275758,0.22313 0.414558,0.33351 0.138802,0.11039 0.278215,0.21998 0.41823,0.32877 l 0.939041,-1.20807 0.939041,-1.20808 c -0.659943,-0.51408 -1.305885,-1.04722 -1.936677,-1.59828 -0.630791,-0.55106 -1.246433,-1.12004 -1.845777,-1.70578 l -2.536467,2.5959 -2.536467,2.59589 c 1.249457,1.22046 2.561361,2.37695 3.929098,3.46286 1.367734,1.08591 2.791301,2.10124 4.264088,3.03939 0.939171,-1.45826 1.877946,-2.91675 2.816324,-4.37548 0.938378,-1.45874 1.87636,-2.91771 2.813946,-4.37692 1.431712,0.91866 2.915375,1.74235 4.438645,2.45886 1.523285,0.71649 3.086173,1.3258 4.67632,1.81574 l -1.389112,4.48447 -1.389112,4.48446 c -1.27959,-0.39993 -2.539562,-0.856 -3.776791,-1.36503 -1.237229,-0.50902 -2.451714,-1.071 -3.640332,-1.68274 0.393832,-0.77672 0.787885,-1.55333 1.182158,-2.32984 0.394272,-0.77651 0.788766,-1.55291 1.183479,-2.32921 0.456007,0.23506 0.915939,0.46168 1.379543,0.67961 0.463616,0.21794 0.930906,0.42718 1.401614,0.62747 l -0.402156,0.94728 -0.402152,0.94726 c 0.162322,0.0689 0.325048,0.13673 0.488169,0.20359 0.163117,0.0669 0.326629,0.13271 0.490528,0.19754 l 0.559216,-1.41285 0.55922,-1.41285 c -0.760858,-0.30222 -1.513368,-0.62856 -2.256415,-0.97791 -0.74305,-0.34935 -1.476636,-0.72171 -2.19964,-1.11596 l -1.723251,3.17294 -1.723243,3.17293 c 1.537044,0.82956 3.11879,1.5774 4.738624,2.23691 1.619841,0.65951 3.27777,1.23069 4.967173,1.70692 l 1.40639,-4.98992 1.406388,-4.98991 c 0.143839,0.0405 0.287885,0.0801 0.43213,0.11864 0.144247,0.0386 0.288693,0.0761 0.433328,0.11268 -0.46956,1.8486 -0.939113,3.69721 -1.408661,5.54581 z m -1.788286,7.03982 -0.126504,0.49799 C 87.20714,129.04811 80.445631,125.55601 74.666703,120.86717 68.887766,116.17833 64.091412,110.29276 60.705779,103.63858 l 0.458486,-0.23564 0.458476,-0.23563 c 3.321368,6.52033 8.03026,12.29526 13.698538,16.89664 5.668269,4.60138 12.295921,8.02923 19.45482,9.8554 z m -20.544887,-33.668088 -0.47933,0.246306 c -2.479718,-4.768278 -3.875522,-9.978209 -3.759275,-15.201656 9e-6,-4e-4 1.7e-5,-8e-4 2.6e-5,-0.0012 -0.116485,-5.223056 1.278887,-10.432635 3.758077,-15.200695 l 0.479346,0.246273 0.479354,0.246277 c -2.412026,4.628124 -3.764481,9.673519 -3.629329,14.708143 -1e-5,3.86e-4 -2e-5,7.72e-4 -3.1e-5,0.0012 -0.134919,5.035005 1.217959,10.080745 3.6305,14.709085 z m -6.460643,3.319828 -5.106003,2.62375 c -0.99452,-1.95039 -1.861798,-3.968123 -2.589643,-6.041006 -0.727844,-2.072884 -1.316255,-4.200919 -1.753039,-6.371913 l 4.585329,-0.908998 4.58533,-0.908998 c 0.215499,1.100131 0.484938,2.190741 0.805131,3.268644 0.320192,1.077902 0.691139,2.143098 1.109652,3.1924 l -2.41193,0.957047 -2.41193,0.957047 c -0.202609,-0.511617 -0.39562,-1.026989 -0.578781,-1.545863 -0.183161,-0.518874 -0.356473,-1.041251 -0.519683,-1.566877 l 0.98131,-0.304925 0.98131,-0.304924 c -0.05104,-0.164232 -0.101035,-0.32878 -0.149962,-0.493635 -0.04893,-0.164851 -0.09679,-0.330008 -0.143582,-0.495463 l -1.483116,0.41944 -1.483116,0.41944 c 0.252009,0.891054 0.532135,1.773355 0.83926,2.645786 0.307126,0.872435 0.641252,1.734999 1.001259,2.586577 l 3.337323,-1.415781 3.337314,-1.415776 C 70.024317,94.073009 69.546702,92.755147 69.15027,91.418079 68.753837,90.081008 68.438587,88.724731 68.211136,87.355863 l -5.118586,0.872728 -5.118597,0.872731 c -0.381702,-2.186091 -0.609579,-4.412941 -0.671438,-6.668358 -0.0058,-0.213163 -0.01021,-0.426581 -0.01308,-0.640244 0.02749,-2.047041 0.192049,-4.071606 0.484619,-6.064641 l 4.636555,0.655494 4.636556,0.655494 c -0.151134,1.10295 -0.2472,2.213482 -0.285072,3.32847 -0.01611,0.47433 -0.02169,0.949467 -0.0165,1.42517 -0.007,0.642511 0.0056,1.28399 0.03733,1.923843 l -2.606835,0.149884 -2.606835,0.149883 c -0.03359,-0.555436 -0.05557,-1.112615 -0.06569,-1.671284 -0.0033,-0.183948 -0.0054,-0.368057 -0.0061,-0.552319 0.0015,-0.375354 0.0084,-0.750076 0.02063,-1.124088 l 1.036943,0.03019 1.036942,0.03019 c 0.0046,-0.165438 0.01037,-0.330753 0.01724,-0.495938 0.0069,-0.165187 0.01485,-0.330244 0.02395,-0.495162 l -1.550289,-0.08702 -1.550289,-0.08702 c -0.04512,0.739938 -0.07041,1.483072 -0.07531,2.22885 0.0013,0.197819 0.004,0.395451 0.0082,0.592888 0.01984,0.941772 0.07208,1.879078 0.155605,2.810799 l 3.626038,-0.310448 3.626029,-0.310447 c -0.07102,-0.924622 -0.100791,-1.852882 -0.08734,-2.782803 -0.0067,-0.460827 -0.0027,-0.921245 0.0116,-1.381016 0.04322,-1.38756 0.180926,-2.769214 0.4065,-4.138347 l -5.119928,-0.866089 -5.119937,-0.86609 c 0.380573,-2.195764 0.916343,-4.35054 1.594966,-6.451985 0.678624,-2.10145 1.500101,-4.149568 2.452088,-6.132011 l 4.215589,2.040059 4.215589,2.040059 c -0.496659,1.020156 -0.948444,2.058899 -1.352169,3.113044 -0.403724,1.054142 -0.759388,2.123685 -1.063806,3.205442 l -2.495204,-0.702307 -2.495204,-0.702308 c 0.149181,-0.529981 0.308637,-1.056887 0.478116,-1.580464 0.16948,-0.523577 0.348983,-1.043825 0.538257,-1.560493 l 0.965207,0.354185 0.965207,0.354186 c 0.05939,-0.161772 0.119811,-0.323191 0.181239,-0.48425 0.06143,-0.161062 0.12387,-0.321763 0.187314,-0.482095 -0.476143,-0.183861 -0.952339,-0.36758 -1.428587,-0.551158 -0.476247,-0.183578 -0.952547,-0.367015 -1.428899,-0.550309 -0.343712,0.862379 -0.66094,1.735608 -0.950538,2.61857 -0.289597,0.882962 -0.551564,1.775657 -0.784752,2.676967 l 3.509298,0.890123 3.509297,0.890123 c 0.342739,-1.356507 0.76979,-2.695857 1.274431,-4.011328 0.504639,-1.315468 1.086868,-2.607058 1.739964,-3.868047 0.154464,0.08387 0.308952,0.167699 0.463463,0.251476 -5e-6,-3e-6 0.463611,0.251191 0.463605,0.251188 -0.705572,1.361569 -1.32567,2.758937 -1.85111,4.182921 -0.525439,1.42398 -0.956221,2.874576 -1.283162,4.342605 l -4.558121,-1.026779 -4.55813,-1.026781 c 0.293057,-1.311713 0.645137,-2.60725 1.053114,-3.883422 0.407979,-1.276176 0.871855,-2.532987 1.388503,-3.767248 l 2.411809,1.022962 2.41181,1.022963 c -0.200088,0.470657 -0.391234,0.944729 -0.573184,1.421966 -0.181949,0.477233 -0.354704,0.957629 -0.51801,1.440937 l -0.973846,-0.328611 -0.973845,-0.328612 c -0.05375,0.159342 -0.106532,0.319002 -0.15835,0.478972 -0.05182,0.159966 -0.102665,0.320243 -0.152538,0.480823 l 1.449693,0.450353 1.449702,0.450357 c 0.242428,-0.779363 0.510329,-1.551725 0.802585,-2.31597 0.292258,-0.764248 0.608871,-1.520379 0.948722,-2.267276 l -3.282464,-1.487572 -3.282486,-1.487582 c -0.717692,1.593619 -1.349264,3.227529 -1.888103,4.895118 -0.538839,1.667589 -0.984945,3.368856 -1.331704,5.097187 1.691886,0.339894 3.383888,0.679268 5.076006,1.01812 1.692117,0.338852 3.384351,0.677184 5.076701,1.014994 -0.313702,1.620714 -0.499763,3.260287 -0.545989,4.906528 -0.01249,0.4449 -0.01477,0.890287 -0.0066,1.335921 -0.02207,1.203314 0.03208,2.404833 0.15772,3.599818 -1.556224,0.181221 -3.112365,0.362937 -4.668423,0.545145 -1.556055,0.182209 -3.112027,0.364911 -4.667916,0.548107 -0.161078,-1.349208 -0.25924,-2.711514 -0.291301,-4.083729 -0.0047,-0.202896 -0.008,-0.406009 -0.0099,-0.609328 0.0106,-1.17175 0.06954,-2.336646 0.174851,-3.492717 l 2.620125,0.224118 2.620134,0.22412 c -0.04215,0.508981 -0.07336,1.019373 -0.09337,1.530924 -0.01969,0.503473 -0.02854,1.00807 -0.02629,1.513548 -3.6e-5,0.0081 -6.9e-5,0.01623 -10e-5,0.02434 l -1.040104,7.18e-4 -1.040105,7.18e-4 c 3.57e-4,0.178553 0.002,0.356972 0.0049,0.535248 0.0029,0.17828 0.007,0.356417 0.01243,0.534403 l 1.531832,-0.04473 1.531832,-0.04472 c -0.0076,-0.334934 -0.01026,-0.670286 -0.0078,-1.005979 -0.0037,-0.491278 0.0036,-0.981824 0.02162,-1.471399 0.03027,-0.824102 0.09086,-1.64545 0.180608,-2.462897 l -3.587151,-0.407189 -3.587151,-0.407189 c -0.186677,1.566568 -0.291282,3.151013 -0.309166,4.748685 0.0022,0.199095 0.0058,0.397984 0.01072,0.596659 0.04434,1.792974 0.197634,3.568486 0.453261,5.319922 1.712297,-0.237612 3.424495,-0.475762 5.136596,-0.71445 1.712101,-0.238687 3.424104,-0.477913 5.136008,-0.717676 0.224536,1.635503 0.581538,3.25589 1.058661,4.848967 0.477156,1.593068 1.074432,3.158822 1.779486,4.685069 l -4.282558,1.946834 -4.28256,1.946834 c -0.547635,-1.220506 -1.043428,-2.464504 -1.484254,-3.728809 -0.440827,-1.264305 -0.826685,-2.548916 -1.154452,-3.850647 0.840133,-0.21831 1.680335,-0.436362 2.520604,-0.654156 0.84027,-0.217795 1.680607,-0.435331 2.521013,-0.652609 0.125153,0.4939 0.260255,0.985384 0.405054,1.474201 0.144802,0.488831 0.299301,0.974994 0.463245,1.458236 l -0.973468,0.329801 -0.973458,0.329798 c 0.05651,0.16686 0.114067,0.333371 0.172671,0.499522 0.0586,0.166149 0.118251,0.331939 0.178933,0.497361 l 1.425838,-0.523327 1.425847,-0.52333 c -0.28252,-0.767426 -0.540462,-1.542746 -0.772709,-2.324845 -0.232249,-0.782101 -0.438802,-1.57098 -0.618544,-2.365519 l -3.508203,0.797161 -3.508185,0.797157 c 0.392449,1.715503 0.88272,3.402407 1.4642,5.054098 0.581481,1.651698 1.254172,3.268183 2.011456,4.842839 l 4.679166,-2.264779 4.679158,-2.264775 c 0.06658,0.13618 0.134007,0.272025 0.202286,0.407529 0.06828,0.135505 0.137409,0.270668 0.207376,0.40548 -1.701971,0.874601 -3.403939,1.749207 -5.105904,2.623815 z m -6.48149,3.33055 -0.458502,0.2356 c -3.385154,-6.654426 -5.35952,-14.077379 -5.494961,-21.840723 -1.1e-5,-5.95e-4 -2.1e-5,-0.0012 -3.1e-5,-0.0018 0.135127,-7.762815 2.108937,-15.185326 5.493391,-21.839495 l 0.458517,0.235571 0.458508,0.235567 c -3.320209,6.520316 -5.252969,13.785781 -5.370241,21.368355 9e-6,5.81e-4 1.8e-5,0.0012 2.7e-5,0.0017 0.11758,7.583094 2.050887,14.848993 5.371784,21.369566 z M 74.104786,66.835916 73.625457,66.589608 c 2.479739,-4.76827 6.043388,-9.094885 10.262811,-12.551708 4.21943,-3.456828 9.094636,-6.043862 14.197481,-7.332965 l 0.132289,0.52061 0.132292,0.520619 c -4.938661,1.246171 -9.673934,3.766022 -13.777683,7.131415 -4.103742,3.365389 -7.575962,7.576317 -9.988524,12.204649 z m -6.460631,-3.319859 -5.105992,-2.623765 c 0.994527,-1.950383 2.116295,-3.83342 3.353109,-5.63692 1.236815,-1.8035 2.588677,-3.527462 4.043394,-5.159693 l 3.51498,3.138671 3.514981,3.138671 c -0.765716,0.856268 -1.497429,1.741993 -2.191951,2.653989 -0.694523,0.911995 -1.351855,1.850261 -1.96881,2.811612 l -2.197682,-1.403353 -2.197683,-1.403352 c 0.296484,-0.465196 0.601239,-0.92531 0.914013,-1.380091 0.312773,-0.454781 0.633565,-0.904228 0.962122,-1.34809 l 0.831724,0.616531 0.831725,0.616531 c 0.103355,-0.139367 0.207513,-0.278167 0.312464,-0.41639 0.104949,-0.138221 0.210692,-0.275866 0.317218,-0.412926 l -1.226889,-0.953193 -1.22689,-0.953192 c -0.567665,0.7321 -1.114405,1.480143 -1.639102,2.243012 -0.524699,0.762872 -1.027355,1.54057 -1.506851,2.331978 l 3.10954,1.890281 3.109531,1.890277 c 0.741042,-1.210497 1.547743,-2.386265 2.413491,-3.52069 0.86575,-1.134427 1.790546,-2.227511 2.767773,-3.272638 l -3.823379,-3.57081 -3.823386,-3.570817 c 1.491415,-1.598751 3.083485,-3.103573 4.764018,-4.502272 1.68053,-1.398696 3.449522,-2.69127 5.294784,-3.865529 l 2.534035,3.956492 2.534036,3.956492 c -0.954422,0.614333 -1.886003,1.268475 -2.791616,1.959299 -0.905614,0.690824 -1.785261,1.418332 -2.635815,2.179396 L 78.688493,50.955276 76.94594,49.004985 c 0.41229,-0.368168 0.830839,-0.729243 1.255395,-1.082972 0.424551,-0.353725 0.855108,-0.700105 1.291419,-1.038887 l 0.635712,0.817735 0.635712,0.817734 c 0.130801,-0.101725 0.262135,-0.202737 0.393995,-0.303026 0.131862,-0.100291 0.264249,-0.19986 0.397154,-0.298699 l -0.92649,-1.246388 -0.92649,-1.246387 c -0.743947,0.551756 -1.472371,1.124858 -2.184155,1.71819 -0.711784,0.593331 -1.406928,1.206892 -2.084315,1.839565 l 2.493948,2.668736 2.493941,2.668729 c 1.044837,-0.977539 2.137651,-1.902666 3.271829,-2.768767 1.134177,-0.8661 2.309718,-1.673175 3.520006,-2.414609 L 84.50482,44.683097 81.796033,40.230248 c 1.88005,-1.135831 3.834781,-2.150156 5.851847,-3.030634 2.017069,-0.880479 4.096475,-1.62711 6.225874,-2.227548 l 1.267336,4.495327 1.267337,4.495326 c -1.081646,0.304897 -2.151063,0.661026 -3.205063,1.0652 -1.053998,0.404173 -2.092579,0.856391 -3.112559,1.353467 l -1.133171,-2.339224 -1.13317,-2.339224 c 0.495766,-0.239607 0.995786,-0.470117 1.499808,-0.691277 0.504023,-0.22116 1.012047,-0.43297 1.523821,-0.635178 l 0.378613,0.956364 0.378612,0.956363 c 0.160306,-0.0635 0.320981,-0.126005 0.482018,-0.187495 0.16104,-0.06149 0.322441,-0.121971 0.484194,-0.18143 -0.1798,-0.477463 -0.359743,-0.954874 -0.53983,-1.432235 -0.180087,-0.477361 -0.360317,-0.954671 -0.540691,-1.43193 -0.873029,0.316158 -1.736105,0.659394 -2.58808,1.02859 -0.851974,0.369196 -1.692848,0.764353 -2.521473,1.184353 l 1.661159,3.230169 1.661159,3.230169 c 1.260811,-0.653518 2.552242,-1.236187 3.867572,-1.741287 1.315326,-0.505098 2.654551,-0.932627 4.010953,-1.275864 0.0393,0.170737 0.07866,0.34146 0.118074,0.512169 0.03942,0.170709 0.07889,0.341404 0.118416,0.512085 -1.460289,0.370238 -2.901212,0.842385 -4.313587,1.407258 -1.412372,0.564871 -2.796195,1.222467 -4.142287,1.963605 l -2.244956,-4.117121 -2.24496,-4.117128 c 1.173087,-0.641028 2.372971,-1.233232 3.596529,-1.773426 1.223562,-0.540195 2.470796,-1.02838 3.738579,-1.461368 l 0.840434,2.477887 0.840434,2.477889 c -0.483074,0.164073 -0.963227,0.337584 -1.440206,0.52028 -0.476976,0.182695 -0.950778,0.374575 -1.421155,0.575387 L 90.624337,42.742952 90.22106,41.796137 c -0.154871,0.06592 -0.309374,0.132747 -0.4635,0.200477 -0.154123,0.06773 -0.30787,0.13636 -0.461233,0.205884 l 0.628427,1.385227 0.628431,1.385236 c 0.746772,-0.340153 1.502787,-0.657075 2.266926,-0.949649 0.764142,-0.292576 1.536409,-0.560803 2.315683,-0.803564 l -1.068416,-3.434206 -1.068422,-3.434229 c -1.674389,0.519858 -3.315774,1.133124 -4.917541,1.833183 -1.601768,0.700059 -3.163919,1.486912 -4.679838,2.353945 0.860076,1.503672 1.720565,3.007122 2.581469,4.510349 0.860903,1.503227 1.72222,3.006232 2.58395,4.509014 -1.462657,0.850589 -2.877534,1.7999 -4.232439,2.835739 -1.3549,1.035836 -2.649827,2.1582 -3.87259,3.354898 -1.10398,-1.12345 -2.208252,-2.246616 -3.312815,-3.369497 -1.10456,-1.122878 -2.209412,-2.245471 -3.314555,-3.36778 0.959839,-0.939682 1.957261,-1.840935 2.989079,-2.700573 1.031813,-0.859633 2.098022,-1.677651 3.195439,-2.450867 l 1.520761,2.150718 1.520767,2.150726 c -0.420763,0.298026 -0.8366,0.603485 -1.24726,0.916124 -0.410663,0.312641 -0.816148,0.632464 -1.216203,0.959214 l -0.655043,-0.80285 -0.655043,-0.802851 c -0.137449,0.112109 -0.274277,0.225 -0.410476,0.338664 -0.136202,0.113666 -0.271774,0.228106 -0.406707,0.34331 l 0.994356,1.164356 0.994355,1.164357 c 0.636451,-0.544281 1.287835,-1.070429 1.953004,-1.577297 0.665166,-0.506865 1.344117,-0.99445 2.035706,-1.461607 l -2.021866,-3.002611 -2.021865,-3.002611 c -1.450646,0.972035 -2.850607,2.019797 -4.19327,3.13667 -1.342659,1.116871 -2.628019,2.302854 -3.849467,3.551335 1.240486,1.220256 2.481286,2.44019 3.722402,3.659803 1.241115,1.219613 2.482544,2.438903 3.724288,3.657872 -1.195949,1.228396 -2.316886,2.52887 -3.350616,3.889081 -1.033703,1.360231 -1.980198,2.780194 -2.827292,4.247547 l -4.088553,-2.350972 -4.088554,-2.350973 c 0.667781,-1.158901 1.38354,-2.290128 2.144089,-3.390556 0.76055,-1.100428 1.56589,-2.170057 2.412835,-3.205762 0.68142,0.549295 1.362697,1.098773 2.04383,1.648433 0.681134,0.549659 1.362124,1.099501 2.042971,1.649526 -0.326706,0.40023 -0.646478,0.805891 -0.959064,1.21673 -0.312595,0.410851 -0.618004,0.82688 -0.915975,1.247834 l -0.845109,-0.597188 -0.845101,-0.597182 c -0.102206,0.144712 -0.203576,0.289989 -0.3041,0.435824 -0.100522,0.145831 -0.200199,0.29222 -0.299021,0.439157 l 1.267584,0.85299 1.267592,0.852996 c 0.462732,-0.685487 0.945532,-1.35857 1.447282,-2.018131 0.501753,-0.659564 1.022456,-1.305607 1.560993,-1.937011 l -2.761709,-2.352201 -2.761696,-2.35219 c -1.131032,1.330883 -2.193626,2.719748 -3.181167,4.159981 -0.987545,1.44024 -1.900036,2.931847 -2.730859,4.468208 l 4.572022,2.487975 4.572013,2.48797 c -0.07329,0.133366 -0.14575,0.267101 -0.217385,0.401197 -0.07164,0.134099 -0.142443,0.268558 -0.212411,0.403369 -1.701997,-0.874552 -3.403996,-1.749099 -5.105998,-2.623641 z m -6.481476,-3.330571 -0.458501,-0.235605 c 3.385181,-6.65441 8.181146,-12.540291 13.95976,-17.229506 5.778622,-4.689223 12.539896,-8.181776 19.855685,-10.049523 l 0.126541,0.497987 0.126539,0.497978 C 87.613961,35.493499 80.986537,38.92179 75.318566,43.523552 69.650605,48.125308 64.942095,53.900531 61.621171,60.421087 Z M 98.220564,47.224908 98.088316,46.704287 c 2.551654,-0.644381 5.160204,-0.964213 7.772124,-0.905968 2.61152,-0.05823 5.21968,0.261495 7.77096,0.905683 5.10296,1.288475 9.97838,3.874985 14.19812,7.331394 l -0.34214,0.419869 -0.34215,0.419876 c -4.10406,-3.364985 -8.83953,-5.884324 -13.77829,-7.12988 -2.46919,-0.62273 -4.98919,-0.927062 -7.5065,-0.859494 -2.51769,-0.06758 -5.03808,0.236852 -7.507625,0.85977 z M 96.438061,40.20773 95.029305,34.661884 c 2.13824,-0.545132 4.323859,-0.943059 6.544665,-1.181586 1.41558,-0.152042 2.84546,-0.23932 4.28647,-0.258676 0.8197,0.01101 1.63578,0.044 2.44769,0.09838 l -0.26829,4.697237 -0.26829,4.697238 c -0.63563,-0.03124 -1.27286,-0.04366 -1.91111,-0.0367 -0.48718,-0.0053 -0.97377,6.64e-4 -1.45951,0.01769 -1.12209,0.03932 -2.23963,0.137557 -3.34944,0.29152 l -0.36791,-2.57253 -0.36791,-2.57253 c 0.54742,-0.07917 1.09709,-0.147242 1.64876,-0.203957 0.55166,-0.05671 1.10533,-0.102074 1.66074,-0.135827 l 0.0597,1.033299 0.0597,1.033299 c 0.17273,-0.0098 0.34562,-0.01841 0.51865,-0.02578 0.17303,-0.0074 0.3462,-0.01352 0.51951,-0.01843 l -0.0459,-1.555351 -0.0459,-1.55535 c -0.9399,0.03303 -1.8751,0.09823 -2.80449,0.194489 -0.92939,0.09626 -1.85298,0.223575 -2.769628,0.380831 l 0.605996,3.574472 0.605992,3.574463 c 1.36906,-0.226098 2.75066,-0.364348 4.13818,-0.408134 0.46389,-0.01464 0.92843,-0.01872 1.39339,-0.01199 0.92579,-0.01339 1.84994,0.01606 2.77048,0.0864 l 0.44271,-5.193695 0.4427,-5.193706 c 2.22735,0.208292 4.42066,0.577135 6.56775,1.094336 2.14708,0.517201 4.24794,1.182759 6.29037,1.984482 l -1.71803,4.348212 -1.71804,4.348211 c -1.04309,-0.414259 -2.10183,-0.781506 -3.17308,-1.098617 -1.07125,-0.31711 -2.15501,-0.584084 -3.24815,-0.797795 l 0.50358,-2.545056 0.50358,-2.545056 c 0.54116,0.107561 1.07975,0.225898 1.6155,0.354758 0.53575,0.128858 1.06867,0.268238 1.59851,0.417889 l -0.27929,0.988838 -0.27928,0.988837 c 0.15795,0.04461 0.31563,0.0902 0.47303,0.136754 0.15741,0.04656 0.31453,0.09408 0.47137,0.142571 l 0.45517,-1.472644 0.45517,-1.472644 c -0.88431,-0.273021 -1.77779,-0.518346 -2.67933,-0.734858 -0.90154,-0.216511 -1.81113,-0.40421 -2.72766,-0.561978 l -0.60805,3.574057 -0.60805,3.574049 c 1.36894,0.226929 2.72531,0.541675 4.06249,0.937625 1.33718,0.39595 2.65518,0.873102 3.94737,1.424843 l 2.02617,-4.780528 2.02617,-4.780537 c 2.02926,0.853923 3.9974,1.842912 5.89208,2.954625 1.89468,1.111716 3.71591,2.346155 5.45132,3.690974 l -2.89116,3.71581 -2.89117,3.715811 c -0.90404,-0.705611 -1.83484,-1.374509 -2.78919,-2.003508 -0.95435,-0.628998 -1.93227,-1.218096 -2.93056,-1.76411 l 1.24323,-2.286388 1.24324,-2.286389 c 0.48431,0.262758 0.96405,0.534286 1.43895,0.814332 0.47491,0.280047 0.94498,0.568611 1.40996,0.865441 l -0.55693,0.870761 -0.55694,0.870761 c 0.14606,0.09348 0.2916,0.187811 0.43662,0.282996 0.14503,0.09519 0.28953,0.191221 0.43349,0.288096 0,1e-5 0.84852,-1.284752 0.84851,-1.284742 -1e-5,9e-6 0.8478,-1.285203 0.84779,-1.285193 -0.77003,-0.520662 -1.55497,-1.018974 -2.3537,-1.493787 -0.79873,-0.474813 -1.61125,-0.926128 -2.43645,-1.352797 l -1.65905,3.23118 -1.65905,3.231179 c 1.26117,0.652675 2.49177,1.376239 3.68506,2.163969 1.19329,0.787729 2.34928,1.639624 3.46125,2.548965 -0.11472,0.134344 -0.22939,0.268721 -0.34403,0.40313 -0.11463,0.134409 -0.22923,0.268849 -0.34379,0.403322 -1.20296,-0.983486 -2.45826,-1.898024 -3.75669,-2.734433 -1.29844,-0.836406 -2.64002,-1.594682 -4.01555,-2.265645 l 2.03665,-4.217115 2.03666,-4.217123 c 1.20674,0.575366 2.38915,1.201698 3.54404,1.875871 1.15488,0.674176 2.28224,1.396192 3.37889,2.162925 l -1.51959,2.151859 -1.51959,2.151861 c -0.42094,-0.297766 -0.8468,-0.588095 -1.27734,-0.870734 -0.43052,-0.282637 -0.86572,-0.557584 -1.30534,-0.824589 l 0.53537,-0.883406 0.53537,-0.883406 c -0.14443,-0.08747 -0.28932,-0.174125 -0.43467,-0.259961 -0.14535,-0.08583 -0.29116,-0.170848 -0.43742,-0.255035 l -0.76119,1.321494 -0.76119,1.321502 c 0.71377,0.41273 1.41649,0.846874 2.10703,1.301316 0.69054,0.454444 1.36891,0.929186 2.03399,1.423108 l 2.15694,-2.91166 2.15696,-2.911679 c -1.40516,-1.036852 -2.8639,-2.000863 -4.36959,-2.88542 -1.50569,-0.884558 -3.05833,-1.689661 -4.65132,-2.408696 2e-5,-5.8e-5 -2.15462,4.714608 -2.15459,4.714551 2e-5,-5.8e-5 -2.15194,4.71575 -2.15191,4.715692 -1.52626,-0.699018 -3.09134,-1.29036 -4.68306,-1.761833 -1.59171,-0.471472 -3.21005,-0.823075 -4.84283,-1.042618 0.21614,-1.549748 0.4318,-3.099585 0.64698,-4.64951 -2e-5,8.6e-5 0.64406,-4.650118 0.64405,-4.650032 1.34204,0.194224 2.67013,0.450518 3.9811,0.765694 1.31096,0.315175 2.60479,0.689231 3.8783,1.118982 l -0.83865,2.478163 -0.83865,2.478173 c -0.48318,-0.163738 -0.96927,-0.318035 -1.45802,-0.462637 -0.48876,-0.144604 -0.98018,-0.279513 -1.47401,-0.404476 l 0.25238,-0.996148 0.25237,-0.996149 c -0.1708,-0.04329 -0.3419,-0.08547 -0.51329,-0.126537 -0.17138,-0.04107 -0.34306,-0.08102 -0.51501,-0.119839 l -0.33417,1.481275 -0.33418,1.481276 c 0.80204,0.180105 1.59833,0.387539 2.38774,0.621153 0.78941,0.233614 1.57194,0.493408 2.34643,0.778234 l 1.23875,-3.37854 1.23876,-3.37854 c -1.64433,-0.600103 -3.32455,-1.109683 -5.03405,-1.522128 -1.70949,-0.412443 -3.44826,-0.727751 -5.20969,-0.93931 -0.2014,1.718997 -0.40225,3.438085 -0.60255,5.157265 -0.20031,1.71918 -0.40006,3.438451 -0.59928,5.157813 -1.19141,-0.121901 -2.38897,-0.172723 -3.58798,-0.147803 -0.45286,-0.0072 -0.90542,-0.0037 -1.35743,0.01045 -1.64875,0.0515 -3.29016,0.243241 -4.912022,0.562893 l -0.91493,-4.608423 -0.914931,-4.608425 c 1.321139,-0.260815 2.657613,-0.461732 4.006223,-0.599626 1.34862,-0.137894 2.70937,-0.212764 4.07909,-0.221486 0.005,0.878562 0.009,1.757154 0.0137,2.635777 9e-5,0.01946 1.9e-4,0.03891 2.8e-4,0.05837 0.004,0.859191 0.008,1.718353 0.0117,2.577489 -0.004,1.6e-5 -0.008,3.2e-5 -0.0117,5e-5 -0.50982,-0.0023 -1.01874,0.0068 -1.52651,0.0268 -0.51166,0.0202 -1.02216,0.05161 -1.53124,0.09397 l -0.0884,-1.029289 -0.0884,-1.029279 c -0.17662,0.01532 -0.35305,0.03185 -0.52929,0.04958 -0.17623,0.01774 -0.35227,0.03668 -0.5281,0.05682 l 0.17242,1.513962 0.17241,1.513973 c 0.81004,-0.08925 1.62392,-0.149856 2.44051,-0.180714 0.50128,-0.01894 1.00359,-0.02667 1.50666,-0.02294 0.31644,-0.0024 0.63259,-1.64e-4 0.94836,0.0065 l 0.0999,-3.629983 0.0999,-3.629966 c -0.38194,-0.01422 -0.7647,-0.02351 -1.14822,-0.02781 -1.41331,0.01582 -2.81627,0.09951 -4.20567,0.247836 -1.766429,0.18858 -3.510928,0.481649 -5.226878,0.872593 l 1.144512,5.058377 1.14451,5.058367 c -0.145354,0.03252 -0.290537,0.06606 -0.435539,0.100613 -0.145005,0.03455 -0.289829,0.07011 -0.434465,0.106673 -0.46961,-1.848591 -0.939227,-3.69718 -1.408849,-5.545767 z m -1.788255,-7.03982 -0.126502,-0.497998 c 3.658258,-0.93367 7.455146,-1.46106 11.337136,-1.528641 3.88141,0.06757 7.67774,0.594819 11.33548,1.528229 7.31606,1.866963 14.07771,5.358836 19.8568,10.047482 l -0.32727,0.401624 -0.32727,0.401617 c -5.66844,-4.601197 -12.29622,-8.028819 -19.45522,-9.854728 -3.57922,-0.912884 -7.29123,-1.425402 -11.08252,-1.484049 -3.79185,0.05865 -7.504411,0.571313 -11.084135,1.484452 z m 32.839664,21.289071 0.34217,-0.419846 c 4.21952,3.456695 7.7833,7.783213 10.2632,12.551418 2.4799,4.768213 3.87592,9.978114 3.75993,15.201566 l -0.54372,4.5e-5 -0.54372,4.6e-5 c 0.13467,-5.035014 -1.21842,-10.080729 -3.63114,-14.709006 -2.41272,-4.628271 -5.88506,-8.839106 -9.9889,-12.20437 z m 4.61199,-5.658889 3.64496,-4.472357 c 1.69715,1.378532 3.30698,2.86434 4.81731,4.44523 1.51033,1.580889 2.92116,3.256861 4.22029,5.015721 l -3.77909,2.804508 -3.77908,2.804508 c -0.68448,-0.918992 -1.40658,-1.81214 -2.16311,-2.67626 -0.75653,-0.864119 -1.54749,-1.699209 -2.3697,-2.502083 l 1.82735,-1.871932 1.82734,-1.871932 c 0.39562,0.386149 0.78465,0.779064 1.16685,1.178492 0.38219,0.399428 0.75755,0.805368 1.12581,1.21757 l -0.77293,0.690925 -0.77292,0.690926 c 0.11582,0.129543 0.23091,0.259726 0.34526,0.390541 0.11435,0.130811 0.22797,0.262254 0.34083,0.394318 l 1.18204,-1.009941 1.18204,-1.009942 c -0.60155,-0.704938 -1.22309,-1.393009 -1.86352,-2.063094 -0.64043,-0.670088 -1.29975,-1.32219 -1.97683,-1.95519 l -2.49523,2.667549 -2.49523,2.667542 c 1.04439,0.978035 2.04076,2.00845 2.98251,3.084631 0.94176,1.076183 1.82889,2.198132 2.65478,3.359232 l 4.26233,-3.015417 4.26234,-3.015423 c 1.25845,1.788359 2.403,3.657407 3.42147,5.594953 1.01846,1.937542 1.91084,3.943582 2.66494,6.005925 l -4.38627,1.612921 -4.38626,1.612922 c -0.38834,-1.051408 -0.82455,-2.088032 -1.30549,-3.106746 -0.48095,-1.018713 -1.00663,-2.019517 -1.57393,-2.999285 l 2.25693,-1.299457 2.25694,-1.299458 c 0.2746,0.47796 0.54059,0.960673 0.79774,1.447888 0.25714,0.487208 0.50543,0.978917 0.74462,1.474875 l -0.92761,0.448398 -0.92762,0.448399 c 0.0717,0.148276 0.1426,0.296939 0.2126,0.445979 0.07,0.149042 0.13912,0.298462 0.20737,0.448252 l 1.40572,-0.64003 1.40573,-0.640031 c -0.38196,-0.841971 -0.78931,-1.672477 -1.22095,-2.4904 -0.43165,-0.817924 -0.88758,-1.623265 -1.36667,-2.414907 l -3.11044,1.88871 -3.11043,1.888705 c 0.74042,1.210825 1.41515,2.456347 2.01757,3.729952 0.60242,1.273606 1.13254,2.575293 1.58373,3.898449 l 4.91055,-1.667009 4.91056,-1.667012 c 0.70672,2.090793 1.2718,4.236135 1.6829,6.423684 0.41111,2.187552 0.66823,4.417312 0.75904,6.676934 l -4.71367,0.13479 -4.71366,0.13479 c -0.0216,-1.123386 -0.10254,-2.242703 -0.23971,-3.354766 -0.13718,-1.11206 -0.33056,-2.216866 -0.57695,-3.31123 l 2.52896,-0.573169 2.52896,-0.573169 c 0.12213,0.537528 0.23366,1.077806 0.33433,1.62058 0.10067,0.542774 0.19048,1.088045 0.26919,1.63556 l -1.0199,0.144958 -1.0199,0.144958 c 0.0242,0.170776 0.0472,0.34176 0.069,0.512943 0.0219,0.171186 0.0425,0.34257 0.062,0.514144 0.50804,-0.06219 1.01605,-0.124542 1.52404,-0.187062 0.50799,-0.06252 1.01594,-0.125208 1.52387,-0.188061 -0.10592,-0.930991 -0.24297,-1.856162 -0.41004,-2.774364 -0.16707,-0.918203 -0.36415,-1.829437 -0.59014,-2.732554 l -3.50865,0.892591 -3.50865,0.892591 c 0.34374,1.356303 0.60321,2.729803 0.77168,4.113778 0.16848,1.383972 0.24597,2.77842 0.22574,4.176621 -0.17725,-0.0039 -0.35449,-0.0078 -0.53172,-0.01163 -0.17723,-0.0038 -0.35446,-0.0076 -0.53168,-0.01124 0.0263,-1.500247 -0.0658,-2.997656 -0.26718,-4.483044 -0.20137,-1.485385 -0.51199,-2.958749 -0.92268,-4.410908 l 4.49423,-1.271182 4.49423,-1.271184 c 0.36885,1.289262 0.68071,2.597266 0.93239,3.920886 0.25169,1.323625 0.44321,2.662867 0.57137,4.014601 l -2.62013,0.226095 -2.62013,0.226095 c -0.0425,-0.508936 -0.096,-1.016456 -0.1602,-1.522308 -0.0642,-0.505849 -0.13904,-1.010029 -0.22435,-1.512289 l 1.01436,-0.173629 1.01436,-0.173629 c -0.0285,-0.166084 -0.058,-0.331948 -0.0886,-0.497583 -0.0306,-0.165632 -0.0623,-0.331035 -0.095,-0.496202 l -1.49041,0.294578 -1.49043,0.294581 c 0.15666,0.799168 0.28603,1.603521 0.387,2.411941 0.10096,0.808423 0.17352,1.620912 0.21656,2.436351 l 3.61635,-0.210383 3.61637,-0.210385 c -0.11811,-1.780256 -0.34291,-3.540787 -0.66777,-5.274981 -0.32487,-1.734193 -0.74981,-3.442049 -1.26821,-5.116952 -1.64828,0.506465 -3.29641,1.013419 -4.94439,1.520861 -1.64798,0.507441 -3.29582,1.015371 -4.94351,1.523789 -0.49459,-1.586438 -1.10788,-3.145062 -1.82765,-4.663678 -0.71978,-1.518611 -1.54605,-2.997215 -2.46661,-4.423619 1.32043,-0.849392 2.64065,-1.699142 3.96065,-2.549252 1.31999,-0.850107 2.63977,-1.700573 3.95934,-2.551398 0.72195,1.131435 1.39731,2.292291 2.02289,3.479381 0.62558,1.187084 1.20138,2.400401 1.72422,3.636765 l -2.4109,1.02445 -2.41091,1.024454 c -0.2004,-0.470531 -0.40974,-0.937643 -0.62777,-1.401081 -0.21803,-0.463443 -0.44474,-0.923213 -0.67989,-1.379058 l 0.91674,-0.471736 0.91673,-0.471735 c -0.0808,-0.157046 -0.16245,-0.313633 -0.24508,-0.469753 -0.0826,-0.156123 -0.1662,-0.311779 -0.2507,-0.466959 l -1.33826,0.729224 -1.33826,0.729223 c 0.39887,0.729078 0.77548,1.468958 1.12868,2.218491 0.35319,0.74953 0.68297,1.508713 0.9882,2.276402 l 3.34695,-1.326022 3.34695,-1.326021 c -0.64129,-1.627517 -1.37159,-3.217629 -2.18427,-4.76372 -0.81268,-1.546088 -1.70776,-3.048156 -2.67861,-4.49959 -1.4428,0.964456 -2.88536,1.9293 -4.32767,2.894534 -1.44232,0.965234 -2.88438,1.930856 -4.3262,2.896868 -0.95942,-1.407853 -2.01106,-2.760658 -3.14255,-4.046223 -1.13153,-1.285543 -2.34291,-2.503842 -3.62181,-3.642705 l 3.15383,-3.533642 3.15384,-3.533642 c 0.99667,0.893828 1.95762,1.827472 2.87971,2.797745 0.9221,0.970273 1.80533,1.977176 2.64659,3.01752 -0.6755,0.556586 -1.35114,1.11299 -2.02693,1.669213 -0.67579,0.556222 -1.35172,1.112263 -2.0278,1.668122 -0.32649,-0.400394 -0.65993,-0.795362 -1.00004,-1.18465 -0.34013,-0.389299 -0.68694,-0.772918 -1.04018,-1.150604 l 0.75742,-0.708141 0.75741,-0.708135 c -0.12121,-0.129653 -0.24314,-0.258632 -0.36579,-0.386927 -0.12265,-0.128293 -0.24602,-0.255903 -0.3701,-0.38282 l -1.09536,1.070909 -1.09536,1.070916 c 0.58064,0.593774 1.14482,1.203557 1.69142,1.828233 0.5466,0.624679 1.07562,1.264251 1.58595,1.917599 l 2.85934,-2.228665 2.85933,-2.228654 c -1.07139,-1.379182 -2.21405,-2.703206 -3.42135,-3.965456 -1.20731,-1.262256 -2.47927,-2.462738 -3.80927,-3.594832 l -3.39396,3.97853 -3.39396,3.978522 c -0.117,-0.100145 -0.23453,-0.199632 -0.35258,-0.298452 -0.11806,-0.09882 -0.23663,-0.196975 -0.35573,-0.294453 1.21496,-1.490793 2.4299,-2.981589 3.64485,-4.472388 z m 4.62687,-5.677149 0.3273,-0.401602 c 5.77876,4.68904 10.5749,10.574777 13.96029,17.229075 3.38539,6.654308 5.36003,14.07718 5.49577,21.840477 l -0.52009,4.3e-5 -0.52008,4.4e-5 c -0.11787,-7.58305 -2.05145,-14.848873 -5.37258,-21.369329 -3.32113,-6.520447 -8.02981,-12.29553 -13.69791,-16.897113 z"
       id="path9124"
       inkscape:path-effect="#path-effect9127"
       inkscape:original-d="M 148.63951,81.792712 A 42.779109,42.779109 0 0 1 105.86044,124.57178 42.779109,42.779109 0 0 1 63.081332,81.792712 42.779109,42.779109 0 0 1 105.86044,39.013519 42.779109,42.779109 0 0 1 148.63951,81.792712 Z"
       inkscape:connector-curvature="0" />
    <path
       style="fill:#ffffff;stroke:#999999;stroke-width:0.11675"
       d="m 114.16569,110.19527 c -1.54218,-0.11591 -2.18262,-0.22078 -3.21074,-0.52492 -1.68185,-0.49753 -2.27892,-0.80756 -3.28632,-1.70544 l -0.83471,-0.74432 h -0.92158 -0.92159 l -0.54965,0.58253 c -0.69507,0.73641 -1.30135,1.11873 -2.42386,1.52836 -1.79941,0.65667 -2.42911,0.76511 -5.072085,0.87312 -1.673606,0.0682 -1.843568,0.0581 -1.633257,-0.0983 0.236783,-0.17587 4.473712,-2.32005 5.055672,-2.55847 0.17246,-0.0708 0.65505,-0.24366 1.07243,-0.38427 l 0.75887,-0.2559 -0.58375,-0.0841 c -0.32106,-0.0464 -1.09471,-0.21683 -1.71922,-0.37906 l -1.135492,-0.29478 -0.499006,0.4042 c -1.039586,0.84209 -1.914423,1.12793 -3.71938,1.21527 -1.464811,0.0712 -2.820981,-0.13867 -4.660204,-0.72121 -0.48159,-0.15235 -1.183361,-0.36295 -1.559484,-0.46795 -0.376124,-0.10466 -0.653583,-0.22084 -0.616577,-0.25757 0.06243,-0.0626 2.336349,-0.50157 4.802914,-0.92762 0.723267,-0.12488 1.499839,-0.16519 2.491706,-0.12931 l 1.440957,0.0522 -1.32421,-0.66061 c -0.728313,-0.36317 -1.622633,-0.8513 -1.987371,-1.08483 l -0.663169,-0.42455 -0.469582,0.22687 c -1.649193,0.79693 -4.108416,0.51704 -6.45859,-0.73436 -0.494608,-0.26343 -1.544994,-0.95609 -2.334194,-1.53916 l -1.434917,-1.06056 0.443954,-0.0354 c 0.460573,-0.03689 4.403894,0.36705 5.61675,0.57685 0.380487,0.0658 1.063484,0.31217 1.517743,0.5477 1.116869,0.57871 1.136131,0.58156 0.53407,0.0783 -0.288961,-0.24168 -1.055219,-0.98479 -1.702799,-1.651732 l -1.17741,-1.212403 -1.157582,-0.03991 c -1.913953,-0.06775 -3.12288,-0.631617 -4.853879,-2.264581 -0.882499,-0.832626 -2.965022,-3.384288 -2.853206,-3.496042 0.03751,-0.03618 0.423159,0.04079 0.857101,0.176002 0.433907,0.134056 1.18298,0.357882 1.664561,0.496967 1.141646,0.329895 2.829396,1.129665 3.54438,1.679529 0.312,0.240001 0.54841,0.39299 0.52538,0.339863 -0.02297,-0.05312 -0.339774,-0.648085 -0.703829,-1.322268 C 83.660463,93.2392 83.270727,92.492442 83.158468,92.25393 82.9797,91.874091 82.88069,91.804496 82.361048,91.69252 81.144139,91.430234 79.6331,90.381994 78.747772,89.185473 c -0.363176,-0.492604 -2.759136,-5.043918 -2.759136,-5.24279 0,-0.266561 4.576775,2.876467 5.131791,3.524091 0.258863,0.301864 0.470655,0.496621 0.47062,0.432151 -4.5e-5,-0.06412 -0.10465,-0.552799 -0.232455,-1.086009 -0.127804,-0.533219 -0.265682,-1.252522 -0.306368,-1.598752 -0.07387,-0.628513 -0.07529,-0.630473 -0.823164,-1.0679 -1.801685,-1.053446 -2.743298,-2.75762 -3.313088,-5.995818 -0.129951,-0.738307 -0.282425,-1.51346 -0.338887,-1.722131 -0.06447,-0.238343 -0.06039,-0.379263 0.01091,-0.379263 0.231488,0 1.764715,1.325372 2.273307,1.965183 0.289289,0.363877 0.825151,1.15924 1.19081,1.767331 l 0.664837,1.105749 0.08052,-1.631102 c 0.04443,-0.897167 0.102061,-1.746296 0.128434,-1.886826 0.03618,-0.193072 -0.03246,-0.289147 -0.279011,-0.39135 -0.179815,-0.07431 -0.50689,-0.310173 -0.726823,-0.523695 -0.967755,-0.939945 -1.301145,-2.434827 -1.184053,-5.308802 0.04319,-1.059494 0.113359,-2.136227 0.155943,-2.392616 l 0.0775,-0.466222 0.803983,1.225102 c 0.949452,1.446774 1.236763,2.035869 1.591613,3.264084 l 0.263874,0.913226 0.488045,-1.41781 c 0.268405,-0.779579 0.529361,-1.511802 0.5799,-1.626881 0.0642,-0.145851 0.0454,-0.198615 -0.06217,-0.174902 -0.09024,0.02102 -0.346637,-0.3402 -0.618918,-0.869437 -0.409884,-0.796445 -0.471072,-1.02137 -0.517283,-1.901999 -0.02935,-0.560079 0.01135,-1.317497 0.09267,-1.723727 0.176347,-0.880929 1.281617,-4.445334 1.355522,-4.371313 0.029,0.02935 0.271731,0.730095 0.539276,1.557817 0.471684,1.459464 0.486653,1.553862 0.493233,3.112274 0.0044,1.111708 0.04283,1.553561 0.12353,1.433081 0.0642,-0.09577 0.289236,-0.477492 0.500053,-0.848357 0.210808,-0.370874 0.697479,-1.112117 1.081504,-1.647064 0.46686,-0.650497 0.595755,-0.892423 0.389009,-0.729723 -0.17006,0.133896 -0.348279,0.243114 -0.396041,0.243114 -0.24299,0 -0.406665,-0.834374 -0.400732,-2.043106 0.0053,-1.059768 0.05259,-1.395729 0.271296,-1.923299 0.276421,-0.666557 1.156757,-1.988842 2.166555,-3.253939 l 0.59133,-0.740878 0.07892,0.507359 c 0.04345,0.27902 0.08283,1.060097 0.08753,1.735478 0.0091,1.294901 -0.224403,2.438968 -0.698925,3.424539 l -0.233146,0.484268 0.316505,-0.387563 c 0.174059,-0.21307 0.770506,-0.795159 1.325398,-1.293155 0.8192,-0.735256 0.992373,-0.947953 0.92095,-1.130082 -0.04842,-0.123708 -0.08956,-0.513452 -0.09149,-0.866679 -0.0071,-1.285209 0.928692,-2.729535 2.569256,-3.965731 0.999645,-0.753249 1.951358,-1.346708 2.031382,-1.266683 0.05933,0.05933 -0.55483,2.221642 -0.773193,2.722236 -0.08407,0.192638 -0.327359,0.629586 -0.540713,0.970903 -0.213361,0.341397 -0.316504,0.577905 -0.229191,0.525353 0.08735,-0.05241 0.63191,-0.402168 1.210204,-0.777299 0.963215,-0.624877 1.069098,-0.731221 1.261887,-1.267331 0.414654,-1.153112 1.349261,-1.752468 3.855804,-2.472711 1.163414,-0.334294 1.407654,-0.373197 1.440324,-0.229413 0.0606,0.266667 -0.52191,1.028465 -1.646361,2.153147 -1.159649,1.159879 -1.960421,1.62258 -2.992283,1.728968 -0.581504,0.05995 -0.790822,0.159374 -1.620424,0.7693 -0.523961,0.385356 -0.954392,0.730938 -0.956511,0.76813 -0.0027,0.03609 0.322304,0.0157 0.720917,-0.04922 1.048152,-0.168863 2.781421,0.07112 4.100806,0.567688 1.25403,0.471942 1.421811,0.601768 0.881169,0.682351 -0.8105,0.120621 -3.700296,0.419337 -4.714368,0.487176 -0.954596,0.0642 -2.291806,-0.04806 -2.748255,-0.230415 -0.117686,-0.047 -0.520901,0.218151 -1.167496,0.76813 -0.543249,0.462169 -0.88265,0.800835 -0.754225,0.752797 1.20569,-0.450614 5.190575,-0.580103 5.051855,-0.16371 -0.05436,0.162832 -4.026591,1.955836 -4.759977,2.148438 -0.353164,0.09282 -1.117286,0.227302 -1.698037,0.299088 l -1.05592,0.130465 -0.709903,0.947616 c -0.390436,0.520821 -0.808416,1.103115 -0.928825,1.2935 l -0.218922,0.346239 0.525379,-0.360135 c 1.268919,-0.869472 3.692058,-1.790529 4.713456,-1.791469 0.44845,-4.17e-4 0.410717,0.0392 -1.625923,1.752371 -2.04487,1.718832 -3.751695,2.814196 -4.976185,3.193078 -0.225121,0.06979 -0.533529,0.717627 -1.09117,2.292888 -0.224483,0.633984 -0.308435,0.983974 -0.196017,0.817169 0.470683,-0.698437 1.413528,-1.562154 2.402194,-2.200218 1.290024,-0.832493 2.472977,-1.455748 2.650876,-1.396475 0.07378,0.02589 -0.06731,0.296579 -0.323226,0.623601 -0.249774,0.318713 -0.865775,1.183751 -1.368878,1.922395 -1.612036,2.366083 -2.272624,3.072581 -4.14809,4.436333 -0.210968,0.153628 -0.262464,0.405281 -0.415524,2.032756 -0.22834,2.427503 -0.218754,2.515756 0.152927,1.409555 0.172942,-0.514774 0.468155,-1.197558 0.656039,-1.517752 0.363913,-0.619894 3.077547,-3.471487 3.219895,-3.383597 0.08416,0.05223 -1.197416,4.249433 -1.566898,5.131932 -0.253046,0.604482 -1.597102,2.619795 -2.109659,3.163256 l -0.401601,0.425908 0.107914,0.892919 c 0.263696,2.182979 0.692548,3.57815 0.698853,2.273999 0.0035,-0.73617 0.296561,-1.638462 0.946029,-2.913287 0.661954,-1.299043 1.505036,-2.641574 1.756876,-2.797223 0.169324,-0.104491 0.04966,2.981507 -0.195254,5.036407 -0.225085,1.888315 -0.723143,3.261618 -1.490084,4.107972 l -0.23688,0.261346 0.489048,1.139473 c 0.545492,1.271384 1.466965,2.934623 1.375023,2.482342 -0.16575,-0.815697 -0.198996,-2.030876 -0.07981,-2.918873 0.201691,-1.502695 0.934917,-4.086246 1.159727,-4.086246 0.0431,0 0.143599,0.415205 0.223436,0.922476 0.07981,0.507271 0.298654,1.597572 0.486299,2.422687 0.510118,2.242935 0.622253,3.266726 0.474371,4.330007 -0.142126,1.021805 -0.327722,1.780393 -0.481598,1.96826 -0.06828,0.08345 0.147792,0.430457 0.618022,0.992399 1.452334,1.73569 1.706506,1.925286 1.310837,0.978228 -0.218665,-0.523269 -0.354885,-3.799342 -0.203704,-4.899016 l 0.09604,-0.698499 0.773725,1.399082 c 0.425554,0.769389 0.985421,1.778601 1.244151,2.242313 0.786123,1.409059 1.128123,2.584066 1.147703,3.943556 l 0.01676,1.16729 0.626802,0.4472 c 0.606468,0.43222 1.931981,1.24579 2.030096,1.24579 0.02652,0 -0.101937,-0.22339 -0.285405,-0.4962 -0.484915,-0.7212 -0.93396,-1.85769 -1.234068,-3.122964 -0.299496,-1.262924 -0.418946,-1.867973 -0.36871,-1.867973 0.01915,0 0.854512,0.827394 1.856542,1.838824 2.639694,2.664183 3.17873,3.412603 3.339151,4.636093 l 0.07591,0.57903 0.642117,0.19453 c 0.353173,0.10707 1.024953,0.30292 1.492856,0.43483 l 0.85074,0.23992 -0.82513,-0.82514 c -1.136295,-1.13604 -2.440268,-3.17967 -2.189209,-3.43073 0.02909,-0.0298 0.494369,0.14995 1.033804,0.39783 0.539426,0.24817 1.190655,0.51908 1.447175,0.60236 0.92362,0.29994 2.30359,1.07442 2.80182,1.57279 0.28594,0.28589 0.67772,0.87203 0.89578,1.34017 l 0.38756,0.8317 1.50844,-0.0316 c 1.45821,-0.0324 1.50906,-0.0398 1.52715,-0.28834 0.025,-0.34025 0.54873,-1.11717 1.27632,-1.89273 0.58186,-0.6202 1.68979,-1.24484 2.91705,-1.64448 0.25138,-0.0818 0.84239,-0.32436 1.31339,-0.53916 0.73657,-0.33545 0.85615,-0.36196 0.85395,-0.1888 -0.008,0.59477 -1.03422,2.20458 -2.08995,3.27669 -0.38936,0.39532 -0.68975,0.71897 -0.66773,0.71897 0.0233,0 0.19257,-0.0491 0.37879,-0.10918 0.18606,-0.0601 0.79207,-0.24399 1.34655,-0.4083 l 1.00833,-0.29907 0.0746,-0.49736 c 0.18419,-1.22854 1.08289,-2.46656 3.62125,-4.988925 1.5269,-1.517353 1.58461,-1.560984 1.58461,-1.203775 0,0.929224 -0.70471,3.16512 -1.33851,4.24648 -0.51043,0.87061 -0.4348,0.8596 1.06498,-0.15569 l 1.06928,-0.72391 0.0827,-1.16986 c 0.12954,-1.837196 0.40111,-2.69467 1.38443,-4.371193 0.47378,-0.807769 1.03829,-1.821984 1.25473,-2.253789 0.21646,-0.431912 0.42752,-0.786486 0.46935,-0.788029 0.0408,-0.0018 0.11313,0.590479 0.15862,1.315821 0.0871,1.395907 -0.0724,3.761405 -0.29329,4.347627 -0.10556,0.280066 -0.0128,0.213788 0.48949,-0.347028 0.34102,-0.381205 0.79621,-0.923682 1.01148,-1.205265 0.41621,-0.5448 0.41455,-0.509151 0.0731,-1.662396 -0.14701,-0.496896 -0.1763,-0.945985 -0.12956,-1.984799 0.0327,-0.738307 0.11265,-1.514613 0.17655,-1.724986 0.15189,-0.501055 0.81242,-3.720125 0.85561,-4.170819 0.0641,-0.665111 0.36442,-0.408483 0.70294,0.600109 0.46288,1.380415 0.70551,3.034919 0.64385,4.392615 -0.0294,0.627032 -0.0376,1.126313 -0.0241,1.109242 0.11159,-0.119619 1.01016,-1.927857 1.27885,-2.573761 l 0.32929,-0.791212 -0.54862,-1.040242 c -0.83911,-1.591746 -0.9628,-2.192893 -1.2385,-6.016471 -0.14475,-2.007022 -0.14806,-2.51016 -0.0182,-2.51016 0.1557,0 1.38307,1.991653 2.02446,3.284409 0.35507,0.716208 0.61692,1.429729 0.68946,1.880059 0.0642,0.399012 0.13402,0.742706 0.15534,0.764068 0.0531,0.05312 0.29285,-1.356755 0.41919,-2.465377 l 0.10472,-0.916614 -0.61935,-0.777069 c -1.2185,-1.529023 -2.05884,-3.339957 -2.9333,-6.320276 -0.23422,-0.79915 -0.45173,-1.49451 -0.48302,-1.545172 -0.0308,-0.05037 -0.008,-0.09165 0.0523,-0.09165 0.0599,0 0.78519,0.697452 1.61215,1.549898 1.16582,1.202117 1.58847,1.72582 1.88279,2.332669 0.20867,0.43036 0.37928,0.859203 0.37928,0.952991 0,0.09412 0.0406,0.19653 0.0925,0.227798 0.0506,0.03228 0.0783,-0.109784 0.0614,-0.31403 -0.0848,-1.025379 -0.2887,-2.845057 -0.33693,-3.009388 -0.0306,-0.102488 -0.33933,-0.382474 -0.6874,-0.622139 -0.95586,-0.658389 -2.38495,-2.228329 -3.03082,-3.329839 -0.31563,-0.538388 -0.93136,-1.424444 -1.36827,-1.968712 -0.43689,-0.544463 -0.767,-1.03414 -0.73351,-1.088173 0.0679,-0.11013 1.63351,0.648325 2.61747,1.267757 0.35321,0.22239 0.99977,0.753888 1.43723,1.181286 l 0.79524,0.776776 -0.34691,-0.934102 c -0.70605,-1.90089 -0.686,-1.868611 -1.29459,-2.087524 -0.85339,-0.30683 -2.585,-1.481066 -4.32705,-2.933612 -0.86689,-0.722939 -1.67606,-1.425783 -1.79853,-1.561577 -0.22141,-0.245987 -0.22086,-0.247176 0.11692,-0.24565 0.7617,0.0035 3.41181,0.896838 4.13346,1.393849 0.55694,0.383537 0.6184,0.404581 0.48423,0.165733 -0.0677,-0.120152 -0.42826,-0.610707 -0.80111,-1.090195 -0.73886,-0.949239 -0.73871,-0.949159 -2.29338,-1.162823 -0.54226,-0.0744 -1.37829,-0.312159 -2.04311,-0.580662 -1.67476,-0.676214 -3.63597,-1.615414 -3.63597,-1.741525 0,-0.06092 0.11814,-0.142374 0.26267,-0.181242 0.47762,-0.127938 2.58213,-0.06819 3.52748,0.10011 0.5112,0.09118 0.9453,0.150142 0.96403,0.131076 0.02,-0.02004 -0.28988,-0.316868 -0.68671,-0.661839 l -0.7212,-0.627342 -2.22764,0.02873 c -2.26585,0.02935 -5.42229,-0.264699 -5.68516,-0.527561 -0.15926,-0.159383 1.62195,-0.79414 2.90604,-1.036154 0.6632,-0.124887 1.29971,-0.168623 1.82464,-0.125171 0.44331,0.03565 0.75859,0.02448 0.70036,-0.02988 -0.5542,-0.502368 -2.07681,-1.404891 -2.56197,-1.518568 -1.13163,-0.265169 -1.89553,-0.801163 -2.9747,-2.087073 -0.54687,-0.651915 -1.09167,-1.349864 -1.21045,-1.550971 l -0.21605,-0.365677 0.39325,0.08469 c 2.03626,0.438483 3.49944,1.029228 4.25157,1.716465 0.70969,0.648599 0.92517,0.985766 1.04771,1.63981 0.0747,0.397415 0.15971,0.473804 1.09008,0.976925 0.55495,0.300223 1.15357,0.646488 1.33,0.769424 0.43003,0.299629 0.40433,0.173705 -0.0864,-0.425491 -0.22433,-0.27354 -0.55927,-0.834001 -0.74443,-1.245463 -0.35379,-0.78599 -0.80636,-2.506401 -0.6899,-2.622712 0.21381,-0.213868 2.40039,1.392732 3.20198,2.352684 0.26301,0.31497 0.64232,0.832546 0.8433,1.15015 0.32808,0.518827 0.36487,0.669271 0.36487,1.483851 0,0.594797 -0.0523,0.955411 -0.15206,1.048896 -0.12287,0.114423 0.0236,0.295852 0.75009,0.937383 1.65888,1.461485 3.59458,3.882762 4.94188,6.181139 l 0.58961,1.005692 v -1.939797 c 0,-1.738572 0.0299,-2.024208 0.27878,-2.756635 0.31874,-0.934758 0.67869,-1.693107 0.80336,-1.692708 0.0931,2.93e-4 0.84758,2.304753 1.1361,3.470494 0.38659,1.560034 0.41611,1.889832 0.23797,2.657004 -0.21691,0.936159 -0.65742,1.922066 -0.99063,2.218237 -0.28278,0.251618 -0.25282,0.267909 -0.67344,-0.367619 -0.078,-0.117855 -0.0213,0.07431 0.12849,0.427557 0.38895,0.923487 0.98619,2.690977 1.23681,3.660533 0.21441,0.828343 0.21587,0.830577 0.22661,0.309082 0.0329,-1.54785 0.23685,-2.123652 1.55596,-4.378035 1.16398,-1.989446 1.09606,-1.970495 1.21329,-0.342169 0.0553,0.766126 0.0913,2.049561 0.0802,2.852019 -0.0274,1.864354 -0.36422,3.059917 -1.10213,3.89852 -0.50837,0.57739 -0.99648,0.891793 -1.24686,0.802644 -0.11037,-0.03813 -0.13028,0.03015 -0.0743,0.252248 0.0413,0.168526 0.11043,1.158663 0.1512,2.20059 l 0.074,1.894204 0.19923,-0.560292 c 0.32396,-0.911693 1.20586,-2.115681 2.63686,-3.599921 1.18725,-1.231549 1.66334,-1.585716 1.57252,-1.170148 -0.0163,0.07015 -0.20737,1.009337 -0.42622,2.086993 -0.73385,3.611218 -1.57141,5.030988 -3.54467,6.007878 -0.61583,0.304941 -0.7299,0.409059 -0.7308,0.66653 -1.8e-4,0.16779 -0.13386,0.882863 -0.29644,1.589272 -0.49783,2.163522 -0.49284,2.064352 -0.0714,1.493906 0.19961,-0.270028 0.73254,-0.796268 1.18497,-1.169589 0.9066,-0.747973 4.06933,-2.774912 4.17122,-2.673028 0.0827,0.08265 -1.45405,3.239643 -2.15524,4.427243 -0.30628,0.519243 -0.83079,1.182306 -1.21911,1.541882 -0.81465,0.754287 -2.4356,1.59876 -3.10214,1.616212 -0.41856,0.01153 -0.47229,0.0509 -0.6508,0.481643 -0.18676,0.451111 -1.12971,2.181507 -1.71921,3.154707 l -0.28261,0.466789 0.58229,-0.482999 c 1.25218,-1.038265 3.05939,-1.915913 5.04437,-2.449717 1.91621,-0.515102 2.079,-0.51065 1.42577,0.0376 -0.19712,0.165786 -0.65014,0.701088 -1.00667,1.189152 -0.85349,1.167753 -1.42693,1.76138 -2.48762,2.574559 -1.3609,1.043044 -2.36138,1.470184 -3.74582,1.598698 -0.98073,0.09124 -1.44158,-0.0071 -1.33811,-0.284296 0.0397,-0.109812 -0.1748,0.08952 -0.47906,0.44273 -0.68908,0.799593 -1.86533,1.978898 -2.78466,2.791568 l -0.70053,0.61908 0.64223,-0.35423 c 1.49994,-0.82705 3.43073,-1.22617 6.68764,-1.38154 1.23374,-0.059 1.61796,-0.044 1.5545,0.0578 -0.12406,0.20073 -3.2848,2.27258 -4.09763,2.68598 -1.06859,0.54342 -2.62417,0.95173 -3.62655,0.95173 -1.05098,0 -1.94615,-0.18192 -2.29698,-0.46649 l -0.26408,-0.21415 0.29181,-0.32518 0.29183,-0.32486 -0.29183,0.18172 c -0.16048,0.10006 -0.6817,0.43426 -1.15803,0.7423 -0.95048,0.61476 -3.31189,1.81337 -4.01594,2.03874 -0.73657,0.2353 -0.43247,0.2323 0.56295,-0.006 1.29018,-0.30894 2.70962,-0.28745 4.80504,0.0721 2.53341,0.43462 3.67035,0.68127 3.69516,0.80126 0.0252,0.11546 -1.35373,0.60698 -3.01343,1.0749 -1.42176,0.40074 -3.73991,0.51119 -4.84517,0.23108 -0.9903,-0.25099 -1.88485,-0.69151 -2.41004,-1.18681 l -0.422,-0.39823 -0.78531,0.23849 c -0.43199,0.13117 -1.2504,0.33013 -1.81884,0.44191 l -1.03345,0.20343 0.81219,0.219 c 1.13928,0.30664 2.2792,0.79095 3.45415,1.46726 0.55422,0.319 1.05327,0.57889 1.10932,0.57777 0.17377,-0.003 2.0279,0.98333 2.0279,1.07905 0,0.10942 -0.32352,0.0995 -2.80198,-0.0872 z m 11.5476,-45.887915 c -0.96701,-0.80627 -1.73409,-1.997027 -1.95338,-3.032418 -0.13442,-0.635191 -0.32985,-4.490011 -0.22744,-4.490011 0.12729,0 1.86514,2.198276 2.3117,2.92431 0.72718,1.181614 0.84428,1.661856 0.79659,3.267383 -0.0329,1.073301 -0.0834,1.430775 -0.22689,1.574258 -0.16982,0.169829 -0.23004,0.148724 -0.70058,-0.243522 z"
       id="path2813"
       inkscape:connector-curvature="0" />
  </g>
</svg>
